<?xml version="1.0" encoding="UTF-8" standalone="no"?><!DOCTYPE svg PUBLIC "-//W3C//DTD SVG 1.1//EN" "http://www.w3.org/Graphics/SVG/1.1/DTD/svg11.dtd"><svg width="100%" height="100%" viewBox="0 0 400 400" version="1.1" xmlns="http://www.w3.org/2000/svg" xmlns:xlink="http://www.w3.org/1999/xlink" xml:space="preserve" xmlns:serif="http://www.serif.com/" style="fill-rule:evenodd;clip-rule:evenodd;stroke-linejoin:round;stroke-miterlimit:2;"><rect id="Artboard1" x="0" y="0" width="400" height="400" style="fill:none;"/><g><g><path id="base1" d="M353.406,252.307l16.53,26.342l-24.632,-8.086c0,0 -9.875,25.665 -59.893,28.288c-0,-0 -75.398,0.61 -78.059,-55.502c0,-0 -3.412,-60.565 43.836,-82.084c-0,0 44.15,-23.412 80.564,10.765c0,-0 32.371,23.106 21.654,80.277Z" style="fill:#fff;fill-rule:nonzero;"/><path id="outline1" d="M358.89,251.247l15.457,24.633c1.167,1.859 1.043,4.249 -0.309,5.978c-1.352,1.728 -3.642,2.424 -5.727,1.739l-20.521,-6.736c-5.353,8.185 -21.246,25.048 -62.107,27.191c-0.077,0.004 -0.153,0.006 -0.23,0.007c-0,-0 -19.741,0.172 -39.828,-7.013c-20.942,-7.491 -42.023,-22.821 -43.473,-53.404c0,-0 -3.348,-64.145 46.757,-87.062c3.044,-1.55 48.424,-23.735 86.173,11.434c3.376,2.542 33.529,27.015 23.808,83.233Zm-93.131,-89.907c-7.471,2.055 -12.131,4.527 -12.131,4.527c-0.093,0.049 -0.186,0.095 -0.282,0.138c-44.266,20.161 -40.794,77.051 -40.794,77.051l0.003,0.046c1.208,25.484 19.155,37.904 36.578,44.136c17.445,6.24 34.599,6.403 36.136,6.405c45.705,-2.439 55.174,-24.95 55.174,-24.95c0.997,-2.59 3.849,-3.944 6.486,-3.078l10.931,3.588l-8.865,-14.128c-0.697,-1.109 -0.949,-2.44 -0.708,-3.728c10,-53.346 -19.561,-75.078 -19.561,-75.078c-0.189,-0.135 -0.369,-0.282 -0.538,-0.441c-12.693,-11.914 -26.402,-16.266 -38.561,-17.062c-0.418,0.351 -0.9,0.642 -1.436,0.853c-11.608,4.579 -22.951,12.281 -21.888,26.599c0.01,0.131 0.015,0.262 0.014,0.394c0,-0 -0.127,7.364 6.826,7.26c7.459,-0.113 12.981,-6.035 13.062,-12.894c0.014,-1.152 -0.222,-2.215 -1.061,-2.295c-0.467,-0.045 -0.877,0.331 -1.309,0.816c-0.75,0.841 -1.353,2.054 -1.831,3.632c-0.832,2.751 -3.742,4.309 -6.493,3.476c-2.752,-0.833 -4.309,-3.743 -3.476,-6.494c2.875,-9.498 9.22,-12.269 14.107,-11.799c5.48,0.527 10.566,5.257 10.479,12.785l0,0.001c-0.144,12.29 -9.955,22.985 -23.32,23.188l-0.002,-0c-15.853,0.237 -17.261,-14.794 -17.386,-17.321c-0.802,-10.896 3.304,-19.274 9.846,-25.627Zm-13.201,60.536c1.079,-5.46 3.948,-9.494 6.406,-9.008c2.461,0.487 3.582,5.306 2.502,10.766c-1.077,5.461 -3.943,9.494 -6.406,9.007c-2.458,-0.484 -3.581,-5.305 -2.502,-10.765Zm-13.892,23.35c0.81,-2.758 3.707,-4.34 6.465,-3.529c2.758,0.81 4.34,3.707 3.529,6.465c-0.545,1.855 0.087,3.784 1.298,5.46c1.588,2.201 4.177,3.97 7.318,4.894c3.141,0.923 6.276,0.836 8.803,-0.154c1.926,-0.755 3.502,-2.035 4.048,-3.89c0.811,-2.758 3.709,-4.338 6.466,-3.527c2.758,0.811 4.338,3.709 3.527,6.467c-2.68,9.112 -14.029,14.553 -25.782,11.098c-11.754,-3.456 -18.35,-14.172 -15.672,-23.284Zm27.718,-20.621c1.08,-5.46 3.948,-9.493 6.407,-9.008c2.46,0.488 3.581,5.306 2.502,10.767c-1.077,5.46 -3.944,9.493 -6.406,9.006c-2.459,-0.483 -3.582,-5.304 -2.503,-10.765Z" style="fill:#f9b019;"/></g><g><path id="base2" d="M49.206,228.401l-19.142,33.956l30.759,-11.954c-0,-0 14.404,31.048 78.235,30.379c0,-0 95.981,-5.158 95.346,-74.942c0,0 0.002,-75.366 -61.658,-98.341c-0,-0 -59.563,-25.215 -106.167,24.797c0,0 -30.606,28 -17.373,96.105Z" style="fill:#fff;fill-rule:nonzero;"/><path d="M43.735,227.501c-12.442,-67.344 16.736,-96.596 19.161,-98.892c47.913,-51.259 108.761,-27.186 111.751,-25.96c64.731,24.186 64.965,103.191 64.965,103.144c0.274,30.111 -16.028,49.127 -35.809,61.035c-28.575,17.203 -64.465,19.155 -64.465,19.155c-0.075,0.004 -0.15,0.006 -0.225,0.007c-53.066,0.556 -73.849,-20.06 -80.43,-29.168l-26.732,10.389c-2.051,0.798 -4.381,0.22 -5.822,-1.443c-1.441,-1.663 -1.682,-4.052 -0.602,-5.969l18.208,-32.298Zm59.928,-114.89c-11.158,4.463 -22.576,11.756 -33.274,23.236c-0.094,0.101 -0.192,0.199 -0.294,0.292c-0,0 -28.326,26.679 -15.776,91.268c0.236,1.215 0.032,2.473 -0.576,3.551l-11.989,21.268l17.182,-6.678c2.561,-0.995 5.455,0.17 6.611,2.663c0,-0 13.819,27.949 73.342,27.364c1.742,-0.108 23.94,-1.635 46.069,-10.9c22.168,-9.28 44.532,-26.445 44.238,-58.787l-0,-0.048c-0,0 0.085,-25.596 -12.336,-50.847c-0.422,0.152 -0.87,0.252 -1.338,0.29c-50.125,4.136 -76.906,-7.757 -91.246,-20.274c-2.786,-2.432 -5.127,-4.905 -7.092,-7.323c1.243,8.94 1.922,19.497 0.663,29.624c-2.216,17.82 -10.305,34.18 -30.078,39.99c-2.509,0.827 -20.49,6.03 -27.014,-12.212c-5.522,-15.442 2.532,-31.317 16.592,-36.77c9.142,-3.547 17.107,1.18 19.097,8.242c1.665,5.912 -0.743,15.075 -13.965,22.033c-2.544,1.339 -5.696,0.361 -7.035,-2.183c-1.339,-2.544 -0.36,-5.696 2.183,-7.035c5.733,-3.017 8.61,-6.066 8.87,-8.992c0.218,-2.449 -2.606,-3.431 -5.383,-2.353c-8.995,3.488 -14.083,13.672 -10.551,23.55c3.531,9.872 13.827,5.872 13.827,5.872c0.124,-0.047 0.249,-0.088 0.375,-0.125c15.317,-4.477 21.032,-17.526 22.745,-31.302c2.113,-16.995 -1.77,-35.309 -3.847,-43.414Zm107.651,32.545c-8.629,-13.405 -21.422,-25.71 -40.387,-32.777c-0.071,-0.026 -0.142,-0.055 -0.212,-0.084c0,-0 -23.811,-10.037 -52.58,-4.042c1.28,3.987 4.651,11.628 12.992,18.909c12.778,11.154 36.532,21.02 80.187,17.994Zm-25.436,31.819c0.21,5.56 -1.65,10.147 -4.156,10.241c-2.506,0.094 -4.709,-4.337 -4.919,-9.898c-0.21,-5.562 1.652,-10.148 4.158,-10.241c2.505,-0.096 4.707,4.337 4.917,9.898Zm14.084,-0.533c0.21,5.561 -1.65,10.148 -4.156,10.242c-2.507,0.094 -4.709,-4.337 -4.919,-9.898c-0.21,-5.562 1.652,-10.148 4.156,-10.241c2.506,-0.096 4.709,4.335 4.919,9.897Zm0.14,18.6c-0.342,-2.855 1.699,-5.449 4.553,-5.79c2.854,-0.341 5.448,1.699 5.79,4.553c1.5,12.55 -7.804,24.104 -20.944,25.673c-13.136,1.57 -24.901,-7.463 -26.402,-20.013c-0.341,-2.855 1.7,-5.449 4.554,-5.79c2.854,-0.341 5.448,1.699 5.789,4.553c0.834,6.972 7.526,11.779 14.824,10.907c7.298,-0.872 12.669,-7.122 11.836,-14.093Z" style="fill:#60412d;"/></g></g></svg>